<svg xmlns="http://www.w3.org/2000/svg" xmlns:xlink="http://www.w3.org/1999/xlink" preserveAspectRatio="xMidYMid meet" version="1.0" viewBox="-0.9 -0.9 479.9 295.2" zoomAndPan="magnify" style="fill: rgb(0, 0, 0);" original_string_length="44911" width="378.32840236686405px" height="232.50000000000009px"><g id="__id101_sbnpac96b"><path d="M475.08,167.88c-1.58,3.61-4.3,6.81-7.95,8.43c-2.37,1.05-4.83,1.29-7.41,1.12 c-0.78-0.05-1.58-0.13-2.37-0.18c-0.23,0.05-0.48,0.07-0.75,0.06c-0.35-0.02-0.7-0.05-1.05-0.07c-1.03,0.06-2.03,0.28-2.99,0.81 c-3.57,1.98-5.19,6.58-5.7,10.39c-0.81,6.03,0.21,12.21-1.51,18.14c-2.46,8.48-13.19,16.06-20.86,8.57 c-5.18-5.06-5.2-17.08-14.67-16.07c-10.56,1.12-13.02,12.9-13.52,21.6c-0.58,10.11,0.15,22.28-7.66,30.04 c-6.46,6.41-17,7.8-23.23,0.43c-0.41-0.48-0.79-0.97-1.17-1.47c-0.14-0.14-0.28-0.29-0.4-0.47c-0.36-0.51-0.72-1.02-1.09-1.53 c-0.43-0.57-0.87-1.14-1.33-1.68c-0.87-1.01-1.97-2.34-3.4-2.5c-3.65-0.41-4.39,5.42-4.57,7.91c-0.29,4.02-0.55,8.29-3.01,11.66 c-2.59,3.54-7.32,4.64-11.12,2.31c-2.24-1.37-3.79-3.44-5.39-5.47c-0.26-0.21-0.49-0.49-0.68-0.85c-0.65-0.8-1.33-1.58-2.08-2.28 c-3.23-3.04-7.64-2.27-11.19-0.2c-6.28,3.66-8.89,10.29-11.72,16.71c-0.21,0.55-0.44,1.09-0.69,1.62c-0.06,0.13-0.13,0.25-0.2,0.36 c-0.9,1.95-1.85,3.86-2.98,5.61c-5.57,8.67-15.6,13.49-25.86,11.48c-4.87-0.95-9.49-3.62-12.88-7.22c-3.73-3.97-5.24-8.71-7-13.73 c-1.2-3.43-4.91-10.53-9.66-7.67c-2.68,1.61-3.75,5.56-5.01,8.21c-1.64,3.43-3.96,6.8-7.83,7.85c-4.77,1.3-9.5-1.62-12.13-5.46 c-3.16-4.62-2.87-10.54-2.79-15.88c0.04-2.65,0.04-5.81-0.84-8.53c-0.06-0.11-0.12-0.23-0.17-0.35c-0.17-0.42-0.33-0.83-0.49-1.25 c-0.57-1.13-1.36-2.13-2.43-2.91c-3.92-2.85-9.6-1.14-13.83,0c-4.46,1.2-8.79,2.18-13.43,1.5c-0.53-0.08-1.07-0.18-1.59-0.31 c-3.65,2.69-8.2,3.6-12.7,2.52c-4.8-1.15-8.35-4.36-10.85-8.43c-0.03-0.04-0.07-0.09-0.1-0.13c-0.91-1.29-1.68-2.69-2.31-4.16 c-1.87-3.11-4.16-5.62-8.46-5.08c-5.45,0.68-9.42,4.8-12.61,8.92c-0.57,0.74-1.15,1.49-1.73,2.25c-0.08,0.13-0.17,0.26-0.25,0.39 c-0.14,0.2-0.29,0.37-0.45,0.52c-5.04,6.47-10.85,12.97-19.85,12.41c-4.57-0.29-8.59-2.76-10.48-7.01 c-1.9-4.29-1.37-9.08-0.73-13.59c0.54-3.81,1.38-8.6-0.77-12.1c-2.77-4.51-8.66-2.31-12.54-0.76c-1.75,0.7-3.52,1.39-5.32,1.91 c-0.24,0.1-0.48,0.16-0.71,0.2c-2.37,0.62-4.79,0.9-7.31,0.45c-4.49-0.81-7.38-4.39-8.33-8.68c-0.72-3.26-0.09-8.27-2.33-10.99 c-2.82-3.42-7.92,0.66-10.05,2.86c-0.57,0.58-1.13,1.19-1.69,1.79c-0.25,0.27-0.49,0.54-0.74,0.82c-0.12,0.14-0.24,0.25-0.37,0.35 c-2.34,2.44-4.87,4.71-8.22,5.58c-4.55,1.17-9-0.78-11.86-4.36c-3.1-3.88-4.12-8.73-3.69-13.61c0.48-5.49,2.5-10.81,2.54-16.34 c0.03-4.15-1.13-9.07-5.37-10.84c-4.53-1.89-10.02,0.21-14.32,1.76c-2.7,0.97-4.31-2.67-2.63-4.51c2.78-3.04,5.85-6.26,7.15-10.26 c0.94-2.9,0.96-6.59-1.19-8.99c-2.23-2.48-6.14-2.68-9.13-3.63c-3.15-0.99-5.84-2.63-7.83-5.29c-3.59-4.79-4.12-11.57-1.81-17.02 c2.64-6.23,8.43-10.45,14.66-12.66c6.43-2.29,13.33-2.26,20.1-1.82c-2.36-8.14,2.53-18.11,11.22-19.91 c6.5-1.34,15.52,0.56,20.1,5.87c1.73-4.52,3.46-9.05,5.2-13.57c2.51-6.85,6.36-15.18,13.27-18.59c7.14-3.52,16.07-0.76,22.98,2.18 c0.14,0.06,0.29,0.11,0.43,0.17c0.94-5.41,2.48-10.35,5.24-15.2c1.95-3.43,4.27-6.84,7.71-8.93c4.4-2.68,9.35-2.08,13.89-0.18 c1.71,0.61,3.43,1.22,5.15,1.82l1.1-2.87c2.51-6.85,6.36-15.18,13.27-18.59c7.13-3.52,16.06-0.77,22.97,2.18 c0.97-4.44,2.42-8.59,4.75-12.68c1.95-3.43,4.27-6.84,7.71-8.93c4.4-2.68,9.35-2.08,13.89-0.18c15.55,5.58,31.28,10.64,47.17,15.16 c28.37,8.08,57.22,14.22,86.25,19.44c29.31,5.27,58.74,9.9,88.12,14.72c0.09,0.02,0.19,0.04,0.29,0.06 c5.73,1.26,14.3,4.69,15.93,10.93c0.84,3.2,0.25,6.74-0.27,9.94c-0.53,3.29-1.34,6.53-1.79,9.83c-1.81,11.83-4.58,23.48-8.26,34.84 c6.86-0.33,13.71-0.72,20.56-1.06c5.79-0.29,12.32-1.05,17.62,1.88c5.45,3.01,6.69,9.74,3.29,14.82c-2.5,3.73-6.23,5.48-10.3,6.34 c1.87,1.33,3.65,2.77,5.28,4.38C475.65,149.54,479.02,158.87,475.08,167.88z" style="fill: rgb(244, 92, 94);"/></g><g id="__id102_sbnpac96b"><path d="M26.02,161.28c0.83-2.02,1.33-4.17,1.33-6.49c-0.01-3.16-0.96-6.31-3.01-8.74 c-2.11-2.51-5.23-3.67-8.31-4.47c-2.94-0.77-6.02-1.33-8.1-3.73c-1.65-1.9-2.45-4.47-2.52-6.97c-0.18-6.22,4.19-11,9.47-13.68 c7.64-3.89,16.63-3.17,24.93-2.49c6.24,3.7,10.62,10.37,13.7,16.82c-0.34,0.88-0.68,1.77-1.01,2.65 c-5.84-4.92-13.66-7.85-20.97-9.22c-3.4-0.64-4.85,4.57-1.43,5.21c7.18,1.34,14.88,4.17,20.25,9.34c-0.29,0.85-0.55,1.71-0.78,2.57 c-6.17-2.43-12.84-4-19.44-2.96c-1.45,0.23-2.23,2.02-1.88,3.32c0.41,1.54,1.89,2.11,3.32,1.89c5.64-0.89,11.86,0.94,17.11,3.16 c-0.17,2.32-0.05,4.66,0.41,6.99c0.09,0.45,0.19,0.89,0.31,1.32C41.25,156.27,33.41,158.11,26.02,161.28z M120.77,194.72 c-15.81-4.38-31.29-9.88-45.99-17.12c-7.02,3.5-13.24,8.48-18,14.74c-0.88,1.15-2.32,1.79-3.69,0.97c-1.14-0.68-1.86-2.52-0.97-3.69 c4.62-6.08,10.28-11.18,16.83-15c-0.82-0.43-1.63-0.88-2.44-1.32c-0.03,0-0.06,0.01-0.09,0.01c-6.82,0.56-13.33,3.32-18.48,7.82 c-2.61,2.28-6.44-1.53-3.82-3.82c4.46-3.89,9.61-6.63,15.19-8.15c-3.15-2.11-5.84-4.82-7.73-8.04c-7.59,0.2-14.88,1.69-21.78,4.44 c0.78,0.12,1.55,0.29,2.31,0.54c4.98,1.63,8.23,5.93,9.28,10.96c1.19,5.68-0.11,11.18-1.24,16.75c-1.08,5.35-1.87,11.6,2.39,15.84 c3.26,3.24,7.14,1.68,10.09-1.1c0.52-0.49,1.03-1,1.53-1.51c0.04-0.06,0.09-0.12,0.14-0.17c7.26-8.23,16.04-15.42,26.1-19.93 c3.15-1.41,5.89,3.25,2.72,4.66c-4.47,2-8.65,4.53-12.54,7.45c1.83,0.56,3.47,1.69,4.67,3.44c1.94,2.83,2.05,6.29,2.45,9.6 c4.93-4.38,9.85-8.75,14.78-13.13c2.59-2.3,6.42,1.51,3.82,3.82c-5.65,5.02-11.31,10.04-16.96,15.06c0.2,0.28,0.44,0.53,0.71,0.75 c1.45,1.2,3.48,1.27,5.27,1.05c0.59-0.07,1.17-0.18,1.75-0.32c7.69-3.95,14.27-9.31,20.8-14.91 C112.01,200.88,116.17,197.48,120.77,194.72z M163.85,204.41c-4.67-0.89-9.33-1.81-13.98-2.78c-5.64,2.37-10.76,7.2-13.15,12.83 c-0.57,1.34-2.57,1.64-3.69,0.97c-1.36-0.82-1.54-2.34-0.97-3.69c2-4.73,5.66-8.77,9.95-11.78c-0.37-0.08-0.74-0.17-1.12-0.25 c-7.39,4.13-14.23,10.51-17.63,18.32c-1.38,3.18-6.03,0.43-4.66-2.72c2.99-6.89,8.58-12.88,14.87-17.31 c-1.69-0.41-3.37-0.82-5.05-1.25c-6.83,2.86-12.46,7.84-18.02,12.6c-2.3,1.98-4.63,3.92-7.02,5.78c3.26,0.35,6.23,1.88,8.17,4.82 c2.4,3.63,2.6,8.44,2.14,12.63c-0.47,4.25-1.77,8.86-0.48,13.08c1.29,4.22,5.46,5.4,9.42,4.42c5.24-1.3,8.65-5.15,11.82-9.34 c0.08-0.19,0.18-0.39,0.31-0.59c2.39-3.5,3.45-7.64,4.54-11.68c1.16-4.33,2.31-8.66,4.33-12.68c1.56-3.11,6.21-0.37,4.66,2.72 c-1.72,3.43-2.69,7.18-3.66,10.92c3.23-2.2,7.09-3.7,11.01-3.57c1.61,0.06,3.09,0.4,4.45,0.97c-0.18-1.73-0.24-3.46-0.2-5.13 C160.04,215.71,161.57,209.92,163.85,204.41z M56.07,124.81c2.96-7.73,5.92-15.47,8.89-23.2c0-0.02-0.01-0.05-0.01-0.07 c-0.31-2.96-3.56-4.94-6.03-5.96c-3.09-1.28-6.8-1.89-10.1-1.23c-6.95,1.39-9.84,10.02-6.26,15.73 C48.27,113.44,52.74,118.95,56.07,124.81z M378.52,175.59c-6.52,6.45-15.5,10.02-25.09,7.63c-0.23-0.04-0.46-0.08-0.69-0.12 c-0.9,1.88-1.82,3.74-2.77,5.6c-0.02,0.05-0.04,0.09-0.06,0.14c6.5,2.62,12.51,6.69,17.23,11.84c2.35,2.56-1.46,6.38-3.82,3.82 c-4.41-4.8-10.02-8.65-16.14-10.95c-0.38,0.66-0.77,1.32-1.16,1.97c7.36,6,14.02,12.77,19.89,20.24c0.9,1.14,1.14,2.7,0,3.82 c-0.95,0.93-2.91,1.16-3.82,0c-5.71-7.28-12.17-13.88-19.3-19.76c-1.78,1.82-3.95,3.17-6.84,3.59c-6.02,0.88-12.12-0.53-18.15-1.57 c-0.06,0.21-0.13,0.42-0.19,0.63c-1.69,5.57-4.82,10.75-8.92,14.79c0.57,0.03,1.15,0.26,1.67,0.76 c11.48,11.06,20.43,23.98,27.49,38.24c0.14,0.17,0.28,0.35,0.42,0.52c1.46,1.84,4.21,5.98,7.02,3.98c2.93-2.08,2.52-7.23,2.85-10.34 c0.42-3.98,1.51-8.51,5.02-10.92c0.72-0.5,1.48-0.84,2.24-1.06c-3.4-3.82-7.13-7.33-11.32-10.26c-2.83-1.98-0.13-6.66,2.72-4.66 c8.74,6.11,15.6,14.31,21.7,22.97c0.07,0.1,0.13,0.21,0.19,0.31c0.84,1.06,1.76,2.04,2.87,2.8c3.31,2.26,7.71,1.18,10.87-0.79 c4.11-2.57,6.12-7.06,7.14-11.64c1.4-6.32,1.06-12.88,1.58-19.31c0-0.06-0.01-0.12-0.01-0.18c-0.12-9.41-6.27-16.42-14.17-20.79 c-3.04-1.68-0.32-6.34,2.72-4.66c6.02,3.33,11.07,8.06,14.02,13.92c2.87-6.71,9.22-12.31,16.56-12.54 C401.71,184.58,390.96,178.15,378.52,175.59z M471.45,159.2c-0.23-9.5-9.68-16.03-17.17-20.13c0.47,0.27-0.59-0.08-0.25-0.08 c-0.42-0.04-0.87-0.02-1.29,0c-0.99,0.06-1.95,0.23-2.93,0.42c-3.01,0.58-5.99,1.36-8.96,2.11c-6.55,1.65-13.2,3.38-19.97,3.76 c-0.56,1.15-1.13,2.3-1.71,3.45c8.59,2.29,17.52,3.44,26.38,2.29c1.45-0.19,2.71,1.39,2.7,2.7c-0.02,1.59-1.24,2.51-2.7,2.7 c-9.73,1.26-19.72-0.2-29.12-2.84c-2.73,4.82-5.62,9.68-11.63,10.56c-3.83,0.56-7.69,0.19-11.55-0.42 c8.01,3.75,16.31,6.82,24.85,9.2c3.35,0.93,1.92,6.14-1.43,5.21c-10.8-3.01-21.27-7.12-31.24-12.24c-0.85,1.77-1.85,3.46-2.97,5.06 c16.11,4.01,29.4,14.3,39,27.88c0.05,0.07,0.09,0.13,0.12,0.2c0.7,0.93,1.31,1.95,1.84,3.01c1.55,3.14,2.52,7.55,5.43,9.76 c3.53,2.68,7.95-0.43,9.93-3.56c2.84-4.49,2.3-10.33,2.44-15.41c0.15-5.65,1.54-12.34,5.26-16.63c-2.79-0.47-5.55-1.08-8.28-1.88 c-5.98-1.75-11.73-4.2-17.49-6.56c-1.34-0.55-2.33-1.78-1.89-3.32c0.37-1.28,1.96-2.44,3.32-1.89c5.58,2.29,11.15,4.65,16.93,6.39 c5.35,1.61,10.8,2.5,16.35,2.88c0.04,0,0.07-0.01,0.11-0.01c2.72-0.13,5.53,0.74,8.21,0.02c1.53-0.41,2.86-1.27,3.96-2.39 C470.31,166.78,471.54,162.89,471.45,159.2z M450.33,133.88c1.86-0.27,3.83-0.52,5.63,0.08c4.96-0.19,11.33-0.48,13.89-5.45 c2.25-4.36-1.64-6.92-5.48-7.6c-5.11-0.9-10.66-0.06-15.8,0.21c-5.99,0.31-11.98,0.64-17.97,0.92c-2.11,5.97-4.47,11.85-7.08,17.63 c6.09-0.68,12.09-2.39,18.01-3.87C444.44,135.07,447.36,134.32,450.33,133.88z M306.54,221.83c-0.64-0.62-0.87-1.33-0.81-2 c-5.73,4.41-12.85,6.7-20.41,5.34c1.95,4.37,2.93,9.14,2.84,13.97c-0.06,3.48-5.46,3.47-5.4,0c0.09-5.44-1.36-10.6-4.2-15.18 c-1.6-0.27-3.19-0.54-4.79-0.81c2.56,7.01,3.79,14.71,2.62,22.03c-0.55,3.43-5.75,1.96-5.21-1.43c1.14-7.09-0.7-15.11-3.61-21.65 c-12.37-2.1-24.75-4.2-37.12-6.3c-3.72-0.63-7.43-1.25-11.15-1.87c-6.69,2.51-11.66,9.12-12.65,16.12 c-0.21,1.44-2.06,2.25-3.32,1.89c-1.53-0.44-2.09-1.87-1.89-3.32c0.9-6.3,4.56-12.1,9.59-16.05c-6-0.99-12.01-1.97-18.01-2.98 c0.22,0.77,0.38,1.55,0.5,2.32c0.55,3.86,0.17,8.02-1.53,11.57c-1.93,4.04-6.28,6.93-7.15,11.53c-0.77,4.06,2.62,6.12,6.13,6.64 c4.26,0.63,8.22-0.71,12.28-1.75c4.71-1.21,9.92-2.19,14.57-0.26c0.07,0.03,0.14,0.06,0.21,0.1c-0.23-7.02,2.27-13.86,6.65-19.91 c2.02-2.79,6.7-0.09,4.66,2.72c-2.72,3.75-4.95,7.84-5.77,12.44c-0.73,4.05-0.07,8.07,1.33,11.87c0.16,0.37,0.3,0.74,0.44,1.12 c0.02,0.06,0.05,0.12,0.07,0.18c0.04,0.1,0.07,0.19,0.09,0.29c0.18,0.56,0.33,1.13,0.46,1.71c1.12,5.13,0.22,10.3,0.73,15.46 c0.37,3.7,3.03,10.17,7.9,9.01c4.88-4.5,7.05-11.02,8.09-17.45c1.12-6.94,0.9-14.24-0.24-21.17c-0.56-3.4,4.64-4.85,5.2-1.43 c1.29,7.85,1.53,15.86,0.29,23.74c4.11-1.41,8.57,0.4,11.51,3.56c0.12,0.13,0.23,0.26,0.34,0.4c0-0.6,0-1.2,0-1.8 c0.03-10.8,0.91-23.01-5.81-32.2c-2.05-2.81,2.63-5.5,4.66-2.72c6.73,9.21,6.55,21.21,6.55,32.11c0,4.78-0.23,9.67,0.8,14.37 c1.11,5.02,3.71,9.09,7.45,12.53c4.63,2.83,10.41,3.67,15.87,1.89c7.54-2.46,11.05-8.82,14.1-15.47 c4.15-10.58-0.29-24.54-8.17-32.19c-2.5-2.42,1.32-6.24,3.82-3.82c6.11,5.93,10.16,14.62,11.05,23.43 c4.33-5.62,10.73-10.03,17.97-8.93C322.15,239.36,315.11,230.08,306.54,221.83z M188.28,216.9c0.26-2.48,0.28-6.63-1.87-8.44 c-5.72-0.98-11.44-1.98-17.15-3.03c-3.67,8.49-5.75,19.16-2.24,27.93c2.17,3.73,3.66,7.73,7.79,9.74c2.48,1.21,5.31,1.43,7.82,0.57 c-0.83-0.76-1.55-1.65-2.09-2.69c-2.5-4.81-0.54-9.92,2.36-14.03C185.24,223.61,187.83,221.14,188.28,216.9z" style="fill: rgb(153, 194, 94);"/></g><g id="__id103_sbnpac96b"><path d="M64.57,117.63c16.2,19.24,28.76,41.5,36.75,65.33c-3.46-1.24-6.88-2.55-10.28-3.94 c-7.1-18.92-17.27-36.64-29.93-52.37C62.27,123.65,63.42,120.64,64.57,117.63z M72.24,97.61c-1.06,2.77-2.12,5.54-3.18,8.31 c23.23,21.04,41.69,47.55,53.34,76.58c1.05,2.61,2.03,5.24,2.97,7.89c3.22,0.86,6.45,1.67,9.7,2.45 c-10.2-31.11-27.58-59.84-50.34-83.38C80.72,105.33,76.55,101.39,72.24,97.61z M57.06,137.25c-0.04,0.1-0.08,0.19-0.12,0.28 c-0.04,0.12-0.09,0.24-0.15,0.36c-1.35,2.76-2.35,5.84-2.71,8.96c4.71,6.18,8.71,12.87,11.92,19.95c3.77,2.17,7.6,4.21,11.5,6.13 c-4.5-13.05-11.46-25.24-20.4-35.76C57.08,137.19,57.07,137.22,57.06,137.25z M105.17,98.68c-7.7-7.88-16.01-15.12-24.78-21.78 c-1,2.01-1.82,4.08-2.51,5.96c-0.26,0.67-0.52,1.35-0.77,2.02c31.13,24.02,55.58,56.91,69.82,93.53c2.35,6.04,4.41,12.18,6.22,18.39 c3.07,0.62,6.15,1.21,9.23,1.79c-4.55-16.86-11.09-33.17-19.38-48.54C132.87,131.31,120.08,113.92,105.17,98.68z M132.55,89.7 c-1.54-1.9-3.12-3.77-4.74-5.61c-0.69-0.79-1.39-1.56-2.1-2.34c-2.2-2.41-4.47-4.75-6.81-7.02c-1.97-0.75-3.93-1.51-5.89-2.29 c-1.54-0.61-3.07-1.22-4.61-1.84c-0.36-0.14-0.72-0.29-1.07-0.43c-0.12-0.05-0.23-0.1-0.34-0.16c-0.1-0.03-0.21-0.07-0.31-0.11 c-2.85-1.23-6.54-2.64-10.19-3.17c3.48,2.53,6.83,5.21,10.07,8.02c2.79,2.43,5.5,4.97,8.11,7.59c9.66,9.69,18.09,20.62,25.32,32.23 c13.45,21.61,22.67,45.47,29.42,69.94c1.47,5.35,2.83,10.72,4.09,16.12c2.99,0.53,5.98,1.05,8.97,1.56 c-4.2-18.59-9.45-36.94-16.58-54.62C157.53,126.81,146.66,107.08,132.55,89.7z M168.06,101.66c-0.08-0.11-0.15-0.23-0.23-0.34 c-1.37-2.02-2.78-4.02-4.21-6c-1.74-2.41-3.53-4.79-5.35-7.14c-0.05-0.02-0.1-0.03-0.15-0.05c-4.87-1.47-9.72-3.02-14.54-4.62 c2.07,2.37,4.09,4.79,6.06,7.25c1.8,2.24,3.55,4.52,5.27,6.83c20.45,27.55,34.69,59.6,41.55,93.27c0.95,4.68,1.75,9.39,2.4,14.11 c2.88,0.49,5.75,0.98,8.63,1.47c-1.95-15.34-5.37-30.49-10.23-45.17C190.27,140.22,180.46,120.06,168.06,101.66z M204.21,111.05 c-0.25-0.45-0.5-0.91-0.76-1.36c-0.82-1.45-1.66-2.88-2.52-4.31c-1.44-2.4-2.93-4.76-4.48-7.09c-2.84-0.65-5.68-1.31-8.52-2 c-1.26-0.31-2.52-0.63-3.78-0.94c1.77,2.35,3.48,4.74,5.12,7.19c1.29,1.93,2.54,3.89,3.76,5.88c5.67,9.28,10.52,19.09,14.81,29 c8.21,18.93,13.45,38.78,17.12,59.05c0.8,4.44,1.54,8.88,2.24,13.34c2.89,0.49,5.78,0.98,8.67,1.47 c-2.32-15.31-5.04-30.56-9.15-45.5C221.51,146.76,213.84,128.25,204.21,111.05z M305,178.79c-1.89,0-3.78,0.03-5.66,0.11 c-11.89,0.49-23.8,2.48-35.16,6.07c-0.83-3.69-1.72-7.37-2.69-11.02c16.21-7.85,33.67-13.46,51.51-16.64 c1.79-0.32,3.59-0.61,5.39-0.88c2.65-0.4,5.3-0.74,7.95-1.03c0.06-0.2,0.12-0.39,0.18-0.59c0.47-1.54,0.94-3.09,1.41-4.63 c0.35-1.15,0.7-2.31,1.06-3.46c-2.56,0.24-5.13,0.52-7.68,0.85c-1.76,0.23-3.51,0.48-5.26,0.75c-19.65,3.07-38.92,8.98-56.84,17.44 c-1.33-4.52-2.77-9-4.32-13.46c13.56-11.9,30.31-20.68,47.6-26.37c3.91-1.29,7.84-2.42,11.77-3.39c0.04-0.01,0.08-0.02,0.12-0.03 c2.03-0.5,4.06-0.95,6.11-1.35c2.78-0.54,5.58-0.99,8.4-1.31c0.23-0.03,0.47-0.05,0.7-0.08c-2.26-1.59-5.01-2.56-7.68-2.82 c-4.56-0.5-9.13-1.01-13.69-1.51c-3.68,1.02-7.32,2.18-10.9,3.47c-1.26,0.45-2.52,0.92-3.77,1.4c-3.11,1.19-6.19,2.47-9.24,3.84 c-7.25,3.27-14.28,7.05-20.94,11.37c-3.98,2.59-7.84,5.38-11.52,8.4c-1.45-3.79-2.97-7.56-4.57-11.29 c3.49-4.15,7.26-8.12,11.32-11.69c1.63-1.44,3.32-2.81,5.05-4.11c2.81-2.1,5.74-3.99,8.82-5.61c-4.38-0.56-8.76-1.15-13.14-1.75 c-2.44,1.79-4.78,3.71-7.01,5.73c-1.48,1.34-2.92,2.73-4.32,4.16c-1.54,1.57-3.04,3.18-4.49,4.83c-0.94-2.02-1.91-4.03-2.9-6.03 c-0.88-1.78-1.78-3.55-2.69-5.31c-1.27-2.44-2.57-4.85-3.91-7.25c-3.59-0.6-7.17-1.22-10.75-1.87c1.4,2.38,2.77,4.79,4.11,7.21 c0.99,1.79,1.96,3.59,2.91,5.41c15.12,28.91,25.24,60.34,29.89,92.68c0.31,2.16,0.59,4.33,0.84,6.49c2.85,0.48,5.7,0.97,8.55,1.45 c-0.06-0.5-0.11-1.01-0.17-1.51c3.35,0.1,6.7,0.33,10.04,0.67c3.16,0.32,6.32,0.74,9.46,1.26c0.89,0.15,1.78,0.3,2.67,0.47 c1.72,0.32,3.44,0.66,5.16,1.03c3.48-1.33,6.61-3.6,9.21-6.43c-2.86-0.83-5.76-1.55-8.69-2.18c-1.81-0.39-3.64-0.74-5.47-1.06 c-7.8-1.35-15.71-2.04-23.49-2.19c-0.67-4.62-1.45-9.23-2.34-13.81c11.52-3.71,23.88-5.93,36.22-6.16c1.68-0.03,3.35-0.03,5.02,0.01 c3.13,0.08,6.24,0.29,9.33,0.65c0.82-2.7,1.65-5.4,2.47-8.09c-2.95-0.36-5.93-0.59-8.9-0.72C308.36,178.83,306.68,178.79,305,178.79 z M279.73,88.09c-1.68,1.46-3.27,3.01-4.76,4.66c-3.35,3.69-6.21,7.83-8.45,12.29c3.12,0.42,6.25,0.82,9.37,1.21 c2.61-4.45,5.97-8.45,9.89-11.79c1.94-1.66,4.03-3.16,6.23-4.48c2.92-1.75,6.03-3.17,9.31-4.21c-5.03-0.83-10.06-1.68-15.08-2.53 C283.95,84.69,281.78,86.31,279.73,88.09z M131.63,58.91c1.55,5.11,2.49,10.4,2.79,15.79c0.13,0.04,0.25,0.09,0.38,0.14 c2.83,1,5.66,1.97,8.5,2.92c0.01-0.11,0.01-0.23,0.01-0.35c-0.09-6.08-0.9-12.13-2.4-17.99c-0.5-1.94-1.07-3.86-1.72-5.76 c-0.9-2.64-1.95-5.23-3.14-7.75c-0.38-0.13-0.76-0.27-1.13-0.4c-0.12-0.04-0.24-0.1-0.34-0.15c-0.08-0.03-0.15-0.05-0.23-0.09 c-2.94-1.31-6.04-1.69-8.79-0.45c1.65,2.89,3.09,5.89,4.3,8.97C130.51,55.47,131.1,57.18,131.63,58.91z M162.19,66.28 c3.29,6.32,5.99,12.95,8.09,19.77c3.3,0.92,6.6,1.81,9.91,2.67c-1.69-6.51-3.92-12.85-6.63-18.97c-0.99-2.23-2.04-4.42-3.15-6.59 c-1.25-2.43-2.58-4.82-3.98-7.16c-4.42-1.36-8.83-2.77-13.22-4.22c1.8,2.47,3.5,5.01,5.09,7.61 C159.67,61.65,160.97,63.94,162.19,66.28z M193.31,75.25c3.21,6.08,6.03,12.4,8.72,18.71c3.46,0.76,6.92,1.5,10.39,2.2 c-2.53-6.04-5.11-12.11-7.95-18.05c-1.01-2.12-2.06-4.22-3.14-6.3c-1.23-2.36-2.52-4.68-3.87-6.97c-4.22-1.1-8.43-2.25-12.63-3.43 c1.7,2.35,3.29,4.79,4.8,7.28C190.9,70.85,192.13,73.03,193.31,75.25z M235.85,79.92c-1.92-2.54-3.93-5-6.04-7.37 c-3.63-0.78-7.25-1.59-10.86-2.42c-1.79-0.41-3.58-0.83-5.36-1.25c2.97,2.46,5.77,5.13,8.4,7.98c2,2.16,3.91,4.42,5.73,6.76 c4.26,5.48,8.04,11.37,11.42,17.4c3.62,0.59,7.25,1.15,10.87,1.69c-2.88-5.59-6.06-11.1-9.59-16.37 C238.95,84.16,237.43,82.01,235.85,79.92z M339.34,180.83c-1.29,3.09-2.81,6.11-4.93,8.68c3.91-1.5,7.88-2.88,11.88-4.13 c0.52-1.03,1.04-2.07,1.54-3.11c0.81-1.67,1.6-3.36,2.36-5.05c0.08-0.18,0.17-0.37,0.25-0.55c0.28-0.63,0.56-1.26,0.84-1.9 c-3.63,0.97-7.24,2.05-10.82,3.24C340.1,178.95,339.73,179.89,339.34,180.83z M321.2,190.73c5.92,0.4,10.17-5.45,12.45-10.32 c-3.58,1.33-7.12,2.76-10.61,4.28C322.43,186.7,321.81,188.71,321.2,190.73z M358.64,155.61c-3.63,0.19-7.26,0.51-10.87,0.97 c-1.97,0.25-3.94,0.55-5.9,0.89c-3.78,0.65-7.54,1.44-11.26,2.39c-1.01,3.33-2.03,6.65-3.04,9.98c3.71-1.1,7.47-2.05,11.25-2.83 c1.99-0.41,3.99-0.78,5.99-1.1c3.52-0.56,7.06-0.98,10.61-1.26c0.7-1.84,1.38-3.68,2.03-5.53 C357.86,157.95,358.26,156.78,358.64,155.61z M367.27,119.69c0.12-0.89,0.28-1.79,0.47-2.69c-3.83,0.69-7.63,1.52-11.4,2.48 c-1.92,0.49-3.83,1.01-5.72,1.58c-3.86,1.14-7.67,2.43-11.43,3.86c0.59,3.18,0.12,6.54-0.88,9.79c3.43-1.44,6.92-2.74,10.45-3.92 c1.95-0.65,3.91-1.26,5.88-1.82c3.81-1.09,7.66-2.03,11.55-2.81C366.56,124.01,366.94,121.85,367.27,119.69z M307.56,109.97 c3.92,0.44,7.84,0.87,11.77,1.3c4.89-3.87,10.18-7.23,15.76-10.02c2.53-1.27,5.12-2.42,7.75-3.45c3.49-1.37,7.07-2.52,10.7-3.45 c-6.05-0.99-12.09-1.98-18.14-2.98c-2.28,1.02-4.52,2.13-6.72,3.32c-2.56,1.38-5.05,2.88-7.48,4.48 C316.36,102.37,311.79,105.98,307.56,109.97z M361.22,167.9c-0.61-0.06-1.22-0.13-1.83-0.2c-0.34,0.88-0.69,1.75-1.04,2.63 C359.39,169.65,360.34,168.83,361.22,167.9z M160.42,36.51c0.09,4.12-0.17,8.24-0.78,12.34c2.82,0.91,5.65,1.79,8.48,2.67 c0.83-4.95,1.2-9.97,1.11-14.97c-0.03-1.59-0.1-3.17-0.22-4.75c-0.16-2.11-0.4-4.2-0.73-6.29c-3.07-0.69-6.23-0.88-8.92,0.05 c0.36,2.06,0.63,4.13,0.81,6.2C160.3,33.33,160.38,34.92,160.42,36.51z M190.62,43.28c0.59,4.9,0.57,9.87-0.05,14.77 c0.75,0.2,1.5,0.41,2.25,0.61c1.75,0.47,3.51,0.94,5.26,1.39c0.34,0.09,0.68,0.18,1.01,0.27c0.62-4.41,0.81-8.84,0.58-13.24 c-0.09-1.8-0.26-3.59-0.49-5.37c-0.22-1.67-0.5-3.33-0.84-4.98c-3.31-1.2-6.6-2.43-9.89-3.68c0.47,1.55,0.88,3.11,1.23,4.69 C190.08,39.57,190.39,41.42,190.62,43.28z M221.04,54.81c0.68,3.65,1.03,7.36,1.07,11.09c2.93,0.67,5.86,1.32,8.79,1.95 c0.08-3.35-0.08-6.71-0.48-10.03c-0.21-1.77-0.49-3.54-0.84-5.29c-0.39-1.99-0.87-3.96-1.43-5.91c-3.47-1.05-6.93-2.13-10.38-3.24 c0.76,1.95,1.43,3.92,1.99,5.93C220.27,51.12,220.7,52.96,221.04,54.81z M258.83,65.82c0.8,2.61,1.39,5.29,1.77,8 c3,0.56,6,1.11,9.01,1.65c0.02,0,0.05,0.01,0.07,0.01c-0.22-2.46-0.6-4.9-1.13-7.3c-0.39-1.78-0.87-3.53-1.42-5.27 c-0.72-2.25-1.57-4.46-2.55-6.62c-2.29-0.53-4.58-1.06-6.87-1.62c-1.5-0.37-3.01-0.74-4.51-1.12c1.38,2.17,2.59,4.44,3.62,6.79 C257.59,62.13,258.27,63.96,258.83,65.82z M302.19,75.14c-0.02-1.64-0.11-3.28-0.29-4.91c-0.24-2.27-0.64-4.52-1.18-6.74 c-3.23-0.55-6.45-1.13-9.67-1.72c0.77,2.2,1.34,4.45,1.73,6.73c0.28,1.65,0.47,3.32,0.55,4.99c0.1,2.03,0.06,4.07-0.13,6.1 c2.9,0.49,5.8,0.98,8.71,1.47C302.12,79.09,302.21,77.12,302.19,75.14z M325.45,78.92c-0.41,1.95-0.96,3.87-1.63,5.76 c2.93,0.48,5.86,0.96,8.8,1.43c0.63-1.96,1.15-3.96,1.56-5.97c0.31-1.56,0.55-3.13,0.73-4.71c0.25-2.23,0.35-4.48,0.32-6.73 c-2.95-0.39-5.89-0.8-8.83-1.21c0.1,2.25,0.04,4.5-0.19,6.73C326.03,75.79,325.78,77.36,325.45,78.92z M359.74,71.76 c-0.67,2.15-1.41,4.27-2.24,6.36c-0.61,1.55-1.27,3.08-1.96,4.59c-1.03,2.24-2.16,4.44-3.38,6.58c1.86,0.3,3.72,0.61,5.58,0.91 c0.09,0.02,0.19,0.04,0.29,0.06c0.98,0.22,2.03,0.49,3.12,0.84c1.3-2.44,2.5-4.92,3.59-7.46c0.65-1.52,1.27-3.06,1.84-4.62 c0.76-2.05,1.44-4.13,2.06-6.23C365.66,72.45,362.7,72.1,359.74,71.76z M388.7,85.47c1.1-2.24,2.1-4.52,2.99-6.85 c0.39-1.03,0.77-2.07,1.12-3.12c-0.38-0.07-0.77-0.12-1.15-0.16c-2.61-0.29-5.23-0.58-7.84-0.87c-0.72,1.97-1.52,3.9-2.41,5.79 c-0.73,1.57-1.51,3.1-2.35,4.61c-2.28,4.11-4.95,8-7.99,11.62c1.38,1.34,2.41,2.9,2.88,4.69c0.41,1.57,0.48,3.22,0.38,4.87 C380.14,100,385,93.02,388.7,85.47z M386.66,119.02c-1.83,0.41-3.67,0.78-5.51,1.09c-3.08,0.52-6.18,0.89-9.3,1.12 c-0.46,2.99-0.98,5.96-1.57,8.92c2.46-0.14,4.9-0.36,7.34-0.66c1.82-0.23,3.62-0.5,5.42-0.82c3.07-0.54,6.11-1.21,9.13-2.01 c1.02-3.33,2.03-6.66,3.05-9.99C392.4,117.58,389.55,118.36,386.66,119.02z M372.74,142.85c-1.75-0.07-3.5-0.19-5.25-0.36 c-0.74,2.88-1.54,5.74-2.39,8.58c1.62,0.18,3.25,0.32,4.87,0.43c1.63,0.11,3.26,0.17,4.89,0.2c3.25,0.06,6.51-0.04,9.76-0.29 c0.93-3.03,1.85-6.07,2.78-9.1c-3.19,0.37-6.4,0.57-9.62,0.62C376.1,142.94,374.42,142.92,372.74,142.85z M367.15,168.4 c-2.61,3.66-5.84,6.6-9.9,7.88c3.14,0.4,6.28,0.7,9.44,0.9c4.23-1.68,7.94-4.76,10.78-8.53C374.03,168.7,370.58,168.62,367.15,168.4 z M196.67,20.66c3.07,4,5.82,8.24,8.2,12.68c4,1.41,8.02,2.77,12.05,4.09c-2.67-6.22-5.9-12.16-9.68-17.73 c-1.3-1.92-2.66-3.79-4.08-5.61c-2.43-3.12-5.04-6.09-7.83-8.91c-1.12,0.35-2.2,0.94-3.2,1.82c-1.44,1.27-2.55,2.81-3.55,4.43 c1.58,1.59,3.1,3.23,4.56,4.92C194.37,17.75,195.54,19.19,196.67,20.66z M227.12,25.78c2.98,5.54,5.57,11.29,7.77,17.2 c3.58,1.04,7.17,2.04,10.77,3.01c-1.8-5.6-3.94-11.09-6.41-16.42c-1.04-2.24-2.13-4.46-3.28-6.65c-1.28-2.44-2.62-4.84-4.03-7.2 c-4.63-1.45-9.25-2.95-13.85-4.5c1.76,2.47,3.43,5,5.01,7.57C224.51,21.09,225.85,23.42,227.12,25.78z M260.35,35.53 c1.37,3.84,2.57,7.73,3.61,11.68c0.27,1.02,0.52,2.04,0.76,3.07c0.04,0.17,0.08,0.35,0.12,0.52c0.12,0.03,0.23,0.05,0.35,0.08 c1.79,0.42,3.58,0.82,5.38,1.22c1.38,0.31,2.77,0.61,4.15,0.91c-0.25-1.26-0.52-2.51-0.81-3.76c3.24-2.85,6.88-5.4,10.73-7.62 c2.38-1.38,4.85-2.63,7.35-3.76c1.21-0.55,2.43-1.07,3.66-1.56c2.11-0.84,4.26-1.61,6.44-2.28c-4.77-1.01-9.54-2.06-14.3-3.15 c-0.53-0.12-1.05-0.25-1.58-0.37c-2.64,1.26-5.23,2.64-7.74,4.15c-2.06,1.24-4.07,2.57-6.01,3.99c-0.38,0.28-0.76,0.56-1.13,0.84 c-0.12-0.41-0.24-0.81-0.37-1.22c-0.63-2.02-1.3-4.03-2.02-6.02c-0.8-2.23-1.66-4.44-2.57-6.63c-3.82-1-7.63-2.03-11.44-3.09 c1.07,2.24,2.08,4.5,3.02,6.79C258.8,31.37,259.6,33.44,260.35,35.53z M305.95,58.94c1,0.17,2,0.33,3,0.49 c5.11-3.66,10.62-6.74,16.4-9.18c3.34-1.41,6.78-2.61,10.28-3.59c5.79-1.62,11.75-2.62,17.77-2.96c-8.31-1.42-16.61-2.89-24.9-4.43 c-3.52,1.18-6.97,2.57-10.32,4.15c-2.56,1.21-5.06,2.53-7.5,3.96c-4.92,2.89-9.58,6.22-13.91,9.97 C299.83,57.9,302.89,58.43,305.95,58.94z M361.22,66.53c2.91-3.35,6.19-6.36,9.75-8.98c2.24-1.65,4.59-3.15,7.03-4.48 c2.75-1.5,5.61-2.79,8.56-3.86c-3.78-0.62-7.57-1.24-11.35-1.87c-1.46-0.24-2.91-0.48-4.37-0.72c-2.31,1.4-4.53,2.92-6.67,4.58 c-1.87,1.45-3.67,2.99-5.39,4.63c-3.03,2.88-5.79,6.03-8.26,9.42C354.09,65.69,357.65,66.11,361.22,66.53z M400.42,72.55 c3.97-3.02,8.21-5.64,12.67-7.84c2.19-1.08,4.42-2.06,6.7-2.93c4.1-1.57,8.32-2.79,12.63-3.66c-2.25-1.16-4.65-2.02-7.13-2.54 c-3.46-0.57-6.91-1.13-10.37-1.7c-2.57,1.04-5.08,2.21-7.54,3.49c-2.43,1.27-4.81,2.65-7.12,4.13c-3.8,2.45-7.41,5.19-10.81,8.22 c0.73,0.08,1.47,0.16,2.2,0.24C394.7,70.24,397.73,71.1,400.42,72.55z M430.17,81.29c-1.7-0.21-3.4-0.37-5.09-0.49 c-1.8-0.13-3.6-0.21-5.41-0.25c-3.8-0.08-7.6,0.05-11.4,0.36c1.1,2.88,1.14,6,0.56,9.1c3.04-0.25,6.09-0.35,9.13-0.33 c1.82,0.02,3.64,0.08,5.46,0.19c1.23,0.07,2.46,0.17,3.69,0.28c2.37,0.22,4.73,0.53,7.08,0.94c0.61-3.01,1.16-6.03,1.65-9.06 C433.84,81.73,431.91,81.51,430.17,81.29z M414.27,105.7c-3.1-0.86-6.25-1.53-9.45-2.01c-0.9,2.97-1.81,5.93-2.71,8.9 c3.28,0.42,6.53,1.07,9.71,1.94c1.73,0.47,3.45,1.01,5.14,1.62c3.16,1.13,6.24,2.48,9.2,4.05c1.02-2.91,1.99-5.84,2.89-8.79 c-3.12-1.57-6.34-2.94-9.63-4.1C417.72,106.72,416,106.18,414.27,105.7z M404.97,135.28c-2.51-2.23-5.14-4.32-7.88-6.25 c-0.95,3.12-1.9,6.23-2.85,9.35c2.33,1.77,4.56,3.67,6.68,5.69c1.35,1.28,2.66,2.61,3.92,3.99c1.92,2.1,3.73,4.3,5.42,6.61 c1.5-2.34,2.7-4.86,4.18-7.21c0.25-0.48,0.49-0.97,0.73-1.46c-1.91-2.36-3.93-4.62-6.06-6.77 C407.78,137.86,406.39,136.55,404.97,135.28z" style="fill: rgb(255, 150, 136);"/></g><g id="__id104_sbnpac96b"><path d="M356.82,116.38c-1.13,7.33-2.51,14.62-4.18,21.85c-1.16,5.01-2.45,10-3.87,14.94 c-0.44,1.55-0.9,3.1-1.37,4.64c-1.84,6.03-3.86,12-6.08,17.9c-0.05,0.13-0.1,0.27-0.15,0.4c-0.59,1.56-1.19,3.15-1.84,4.71 c-1.58,3.79-3.5,7.45-6.45,10.34c-2.18,2.13-4.86,3.71-7.74,4.45c-1.79,0.46-3.66,0.6-5.54,0.34l1.59-5.22 c1.18,0.08,2.3-0.09,3.34-0.45c4.22-1.46,7.32-6.03,9.15-9.94c0.07-0.14,0.13-0.29,0.19-0.43c0.77-1.67,1.48-3.36,2.15-5.08 c1.94-4.95,3.55-10.08,5.14-15.1c0.28-0.88,0.55-1.76,0.82-2.64c0.47-1.54,0.93-3.08,1.38-4.63c3.56-12.31,6.3-24.84,8.25-37.5 c0.22-1.44,2.05-2.25,3.32-1.88C356.46,113.5,357.05,114.93,356.82,116.38z M423.78,73.81c-1.27-0.37-3.1,0.45-3.32,1.89 c-2.33,15.17-5.8,30.14-10.45,44.77c-2.2,6.92-4.42,14.03-7.49,20.62c-1.83,3.92-4.93,8.5-9.15,9.95c-0.98,0.34-2.02,0.51-3.12,0.46 l-1.6,5.24c1.51,0.19,3.02,0.12,4.48-0.17c3.21-0.63,6.2-2.3,8.6-4.64c4.17-4.08,6.28-9.71,8.29-15.05 c4.67-12.35,8.5-25.01,11.47-37.88c1.67-7.23,3.05-14.52,4.18-21.85C425.88,75.67,425.29,74.24,423.78,73.81z M394.06,89.86 c0.03-3.09-4.77-3.09-4.8,0c-0.04,5.1-1.42,10.14-2.88,14.99c-1.87,6.23-4.14,12.34-6.42,18.43c-2.4,6.4-4.86,12.78-7.11,19.24 c-1.5,4.31-2.68,8.82-4.32,13.11c-0.6,1.56-1.25,3.09-2.01,4.57c-0.39,0.77-0.82,1.53-1.27,2.28c-1.57,2.58-3.42,5.14-5.71,6.99 c-0.38,0.31-0.78,0.6-1.19,0.87l-2.68,6.37c1.67-0.33,3.21-0.94,4.63-1.75c5-2.88,8.53-8.41,11.13-14.18 c0.69-1.53,1.31-3.07,1.88-4.59c0.86-2.29,1.59-4.52,2.22-6.52c4.39-13.86,10.29-27.19,14.71-41.04 C392.16,102.58,394.01,96.24,394.06,89.86z M312.83,121.97c-30.41-2.27-60.72-6.11-90.65-12.02c-20.55-4.06-40.94-9.09-60.93-15.36 c-1.51-0.47-3.01-0.96-4.51-1.44c-7.63-2.47-15.2-5.13-22.7-7.99c-0.92-0.35-1.85-0.72-2.77-1.09c-1.65-0.67-3.31-1.36-4.97-2.06 c-4.69-1.98-9.41-4-14.21-5.61c-1.56-0.53-3.13-1.01-4.71-1.43c-6.45-1.73-13.05-2.48-19.94-1.17c-3.03,0.57-1.75,5.2,1.28,4.63 c5.96-1.13,11.77-0.46,17.46,1.07c1.57,0.42,3.12,0.91,4.67,1.44c4.67,1.61,9.25,3.64,13.75,5.56c1.67,0.71,3.32,1.4,4.97,2.06 c0.08,0.03,0.16,0.06,0.24,0.09c8.71,3.44,17.55,6.55,26.47,9.41c1.61,0.52,3.22,1.02,4.83,1.52c3.84,1.19,7.69,2.34,11.56,3.44 c29.37,8.4,59.43,14.32,89.68,18.46c16.77,2.29,33.62,4.05,50.5,5.31C315.91,127,315.89,122.2,312.83,121.97z M320.84,149.04 c1.78-5.68,3.4-11.61,3.45-17.58c0.03-3.09-4.77-3.09-4.8,0c-0.04,5.1-1.42,10.14-2.88,14.99c-0.18,0.6-0.37,1.2-0.55,1.79 c-0.48,1.54-0.99,3.08-1.51,4.61c-1.38,4.04-2.86,8.04-4.36,12.03c-0.65,1.74-1.31,3.48-1.96,5.21c-0.64,1.71-1.28,3.41-1.92,5.12 c-1.1,2.96-2.19,5.92-3.22,8.9c-1.23,3.53-2.24,7.19-3.47,10.76c-0.54,1.56-1.11,3.1-1.77,4.6c-0.69,1.58-1.46,3.13-2.37,4.61 c-3.1,5.08-7.28,10.13-13.8,9.68c-3.08-0.21-3.07,4.59,0,4.8c10.9,0.75,17.1-9.01,20.98-18.53c0.63-1.56,1.21-3.11,1.72-4.61 c0.5-1.45,0.96-2.86,1.37-4.17c1.63-5.13,3.46-10.18,5.34-15.22c0.64-1.71,1.29-3.41,1.93-5.12c2.17-5.73,4.34-11.45,6.3-17.26 c0.39-1.15,0.77-2.29,1.13-3.45C320.6,149.82,320.72,149.43,320.84,149.04z M317.93,123.83c-1.75,2.56,2.41,4.96,4.14,2.42 c1.15-1.68,3.05-2.5,5.04-2.44c3.09,0.09,3.09-4.71,0-4.8C323.37,118.91,320.02,120.77,317.93,123.83z M387.7,82.23 c-1.75,2.56,2.41,4.96,4.14,2.42c1.15-1.68,3.05-2.5,5.04-2.44c3.09,0.09,3.09-4.71,0-4.8C393.14,77.31,389.79,79.17,387.7,82.23z M123.02,63.11c3.35-3.36,7.72-4.51,12.2-4.42c1.64,0.04,3.3,0.24,4.93,0.56c0.19,0.04,0.38,0.08,0.56,0.12 c2.92,0.62,5.74,1.56,8.53,2.6c4.07,1.52,8.25,2.81,12.4,4.13c1.83,0.59,3.67,1.16,5.51,1.72c1.53,0.47,3.06,0.93,4.6,1.39 c13.29,3.97,26.74,7.48,40.2,10.74c33.31,8.08,67.09,14.07,101.1,18.25c4.95,0.61,9.9,1.15,14.85,1.71 c1.03,0.12,1.87,0.55,2.86,0.75c0.76,0.16,1.51-0.01,2.26,0.08c1.07,0.13,2.19,0.56,3.24,0.83c2.86,0.73,5.72,1.51,8.48,2.55 c1.2,0.45,2.39,0.98,3.47,1.66c0.42,0.26,0.75,0.54,1.12,0.85c0.32,0.27,0.24,0.2,0.32,0.46c0.98,3.33,6.19,1.91,5.21-1.43 c-1.45-4.93-8.24-6.75-12.54-8.03c-5.78-1.72-11.5-2.78-17.46-3.44c-17.89-1.98-35.71-4.46-53.45-7.48 c-32.94-5.62-65.71-13.02-97.75-22.57c-1.54-0.46-3.07-0.92-4.6-1.39c-0.99-0.3-1.99-0.6-2.98-0.91c-4.97-1.54-9.98-3.09-14.88-4.88 c-2.81-1.02-5.61-2-8.51-2.67c-0.73-0.17-1.46-0.32-2.2-0.45c-1.08-0.18-2.16-0.32-3.23-0.4c-6.61-0.52-13.13,0.92-18.03,5.85 C116.75,61.76,120.56,65.58,123.02,63.11z M364.41,99.26c-2.17,0.7-4.34,1.39-6.51,2.09c-3.29,1.06-1.89,6.27,1.43,5.21 c2.17-0.7,4.34-1.39,6.51-2.09C369.14,103.41,367.73,98.19,364.41,99.26z M158.47,36.81c5.86-1.11,11.59-0.49,17.18,0.99 c1.58,0.42,3.14,0.9,4.7,1.43c6.56,2.24,12.95,5.33,19.2,7.79c14.02,5.53,28.37,10.24,42.86,14.38 c29.37,8.4,59.43,14.32,89.68,18.46c16.77,2.29,33.62,4.05,50.5,5.31c3.08,0.23,3.07-4.57,0-4.8c-30.41-2.27-60.72-6.11-90.65-12.02 c-29.96-5.92-59.59-13.89-88.14-24.8c-7.36-2.81-14.72-6.36-22.27-8.87c-1.56-0.52-3.14-1-4.72-1.41 c-6.34-1.66-12.84-2.36-19.61-1.08C154.17,32.76,155.45,37.38,158.47,36.81z M191.85,23.86c4.57-4.6,11.05-5.06,17.13-3.85 c3.12,0.62,6.12,1.61,9.1,2.72c4.07,1.52,8.25,2.81,12.4,4.13c16.55,5.29,33.42,9.76,50.3,13.85c33.31,8.08,67.09,14.07,101.1,18.25 c4.95,0.61,9.9,1.15,14.85,1.71c1.03,0.12,1.87,0.55,2.86,0.75c0.76,0.16,1.51-0.01,2.26,0.08c1.07,0.13,2.19,0.56,3.24,0.83 c2.86,0.73,5.72,1.51,8.48,2.55c1.2,0.45,2.39,0.98,3.47,1.66c0.42,0.26,0.75,0.54,1.12,0.85c0.32,0.27,0.24,0.2,0.32,0.46 c0.98,3.33,6.19,1.91,5.21-1.43c-1.45-4.93-8.24-6.75-12.54-8.03c-5.78-1.72-11.5-2.78-17.46-3.44 c-17.89-1.98-35.71-4.46-53.45-7.48c-35.54-6.06-70.88-14.19-105.33-24.87c-4.97-1.54-9.98-3.09-14.88-4.88 c-3.51-1.28-7.01-2.5-10.71-3.12c-7.68-1.29-15.56-0.29-21.27,5.45C185.58,22.5,189.4,26.32,191.85,23.86z M433.24,60 c-2.17,0.7-4.34,1.39-6.51,2.09c-3.29,1.06-1.89,6.27,1.43,5.21c2.17-0.7,4.34-1.39,6.51-2.09C437.97,64.15,436.56,58.94,433.24,60z" style="fill: rgb(242, 228, 190);"/></g><g id="__id105_sbnpac96b"><path d="M468.92,142.91c-1.63-1.61-3.41-3.05-5.28-4.38c4.07-0.86,7.8-2.61,10.3-6.34 c3.4-5.07,2.16-11.81-3.29-14.82c-5.3-2.92-11.84-2.17-17.62-1.88c-6.85,0.34-13.71,0.73-20.56,1.06 c3.69-11.36,6.46-23.01,8.26-34.84c0.45-3.3,1.26-6.54,1.79-9.83c0.52-3.2,1.11-6.74,0.27-9.94c-1.63-6.25-10.2-9.67-15.93-10.93 c-0.1-0.02-0.19-0.04-0.29-0.06c-29.39-4.83-58.81-9.45-88.12-14.72C309.42,31,280.57,24.86,252.2,16.79 c-15.89-4.52-31.62-9.59-47.17-15.16c-4.54-1.89-9.48-2.49-13.89,0.18c-3.44,2.09-5.76,5.51-7.71,8.93 c-2.33,4.09-3.79,8.24-4.75,12.68c-6.91-2.95-15.84-5.7-22.97-2.18c-6.91,3.41-10.76,11.74-13.27,18.59 c-0.37,0.96-0.73,1.92-1.1,2.87c-1.72-0.6-3.44-1.21-5.15-1.82c-4.54-1.89-9.48-2.49-13.89,0.18c-3.44,2.09-5.76,5.51-7.71,8.93 c-2.76,4.85-4.3,9.79-5.24,15.2c-0.14-0.06-0.29-0.11-0.43-0.17c-6.91-2.95-15.84-5.7-22.98-2.18 c-6.91,3.41-10.76,11.74-13.27,18.59c-1.73,4.52-3.46,9.05-5.2,13.57c-4.58-5.31-13.6-7.21-20.1-5.87 c-8.7,1.79-13.59,11.77-11.22,19.91c-6.76-0.45-13.67-0.47-20.1,1.82c-6.23,2.22-12.02,6.43-14.66,12.66 c-2.31,5.45-1.78,12.23,1.81,17.02c2,2.66,4.68,4.3,7.83,5.29c2.99,0.94,6.9,1.15,9.13,3.63c2.15,2.39,2.13,6.09,1.19,8.99 c-1.3,4-4.37,7.22-7.15,10.26c-1.69,1.85-0.07,5.48,2.63,4.51c4.3-1.55,9.79-3.65,14.32-1.76c4.24,1.77,5.4,6.69,5.37,10.84 c-0.04,5.53-2.06,10.85-2.54,16.34c-0.43,4.88,0.59,9.73,3.69,13.61c2.87,3.58,7.31,5.53,11.86,4.36c3.34-0.86,5.88-3.14,8.22-5.58 c0.13-0.1,0.25-0.22,0.37-0.35c0.24-0.27,0.49-0.55,0.74-0.82c0.57-0.61,1.13-1.21,1.69-1.79c2.13-2.2,7.24-6.28,10.05-2.86 c2.24,2.72,1.6,7.74,2.33,10.99c0.95,4.29,3.84,7.87,8.33,8.68c2.51,0.45,4.94,0.17,7.31-0.45c0.23-0.03,0.47-0.1,0.71-0.2 c1.8-0.52,3.57-1.22,5.32-1.91c3.88-1.54,9.76-3.75,12.54,0.76c2.15,3.5,1.31,8.29,0.77,12.1c-0.64,4.51-1.18,9.3,0.73,13.59 c1.89,4.26,5.91,6.73,10.48,7.01c9,0.57,14.81-5.94,19.85-12.41c0.16-0.15,0.31-0.32,0.45-0.52c0.09-0.13,0.17-0.26,0.25-0.39 c0.58-0.76,1.16-1.51,1.73-2.25c3.19-4.12,7.15-8.23,12.61-8.92c4.3-0.54,6.59,1.97,8.46,5.08c0.64,1.47,1.4,2.87,2.31,4.16 c0.03,0.05,0.07,0.09,0.1,0.13c2.5,4.07,6.05,7.28,10.85,8.43c4.5,1.08,9.05,0.16,12.7-2.52c0.53,0.13,1.06,0.23,1.59,0.31 c4.64,0.68,8.97-0.3,13.43-1.5c4.23-1.14,9.9-2.85,13.83,0c1.08,0.78,1.86,1.78,2.43,2.91c0.15,0.42,0.31,0.84,0.49,1.25 c0.05,0.12,0.11,0.24,0.17,0.35c0.88,2.72,0.88,5.88,0.84,8.53c-0.08,5.34-0.37,11.26,2.79,15.88c2.63,3.84,7.36,6.76,12.13,5.46 c3.87-1.06,6.2-4.42,7.83-7.85c1.26-2.65,2.33-6.59,5.01-8.21c4.76-2.86,8.47,4.25,9.66,7.67c1.75,5.02,3.27,9.76,7,13.73 c3.39,3.61,8.01,6.27,12.88,7.22c10.26,2.01,20.29-2.8,25.86-11.48c1.13-1.76,2.08-3.66,2.98-5.61c0.07-0.11,0.14-0.23,0.2-0.36 c0.25-0.53,0.47-1.08,0.69-1.62c2.83-6.42,5.43-13.06,11.72-16.71c3.55-2.07,7.96-2.84,11.19,0.2c0.75,0.7,1.42,1.48,2.08,2.28 c0.19,0.36,0.42,0.65,0.68,0.85c1.6,2.03,3.15,4.11,5.39,5.47c3.8,2.33,8.53,1.23,11.12-2.31c2.47-3.38,2.73-7.65,3.01-11.66 c0.18-2.49,0.91-8.32,4.57-7.91c1.43,0.16,2.54,1.49,3.4,2.5c0.47,0.54,0.9,1.11,1.33,1.68c0.37,0.51,0.73,1.02,1.09,1.53 c0.13,0.18,0.26,0.33,0.4,0.47c0.38,0.5,0.76,1,1.17,1.47c6.24,7.37,16.78,5.98,23.23-0.43c7.82-7.76,7.09-19.93,7.66-30.04 c0.5-8.7,2.96-20.48,13.52-21.6c9.47-1.01,9.5,11.01,14.67,16.07c7.67,7.49,18.39-0.09,20.86-8.57c1.72-5.93,0.71-12.11,1.51-18.14 c0.51-3.81,2.14-8.41,5.7-10.39c0.95-0.53,1.96-0.75,2.99-0.81c0.35,0.02,0.7,0.05,1.05,0.07c0.27,0.02,0.52-0.01,0.75-0.06 c0.79,0.05,1.58,0.13,2.36,0.18c2.58,0.17,5.03-0.07,7.41-1.12c3.65-1.62,6.37-4.82,7.95-8.43 C479.02,158.87,475.65,149.54,468.92,142.91z M448.57,121.12c5.14-0.27,10.69-1.11,15.8-0.21c3.84,0.68,7.73,3.24,5.48,7.6 c-2.56,4.98-8.94,5.27-13.89,5.45c-1.8-0.59-3.77-0.35-5.63-0.08c-2.97,0.44-5.9,1.19-8.81,1.91c-5.92,1.48-11.91,3.19-18.01,3.87 c2.61-5.78,4.97-11.66,7.08-17.63C436.59,121.76,442.58,121.43,448.57,121.12z M186.79,14.56c1.51-2.69,3.01-5.49,5.35-7.56 c3.22-2.84,7.25-2.67,11.03-1c0.08,0.03,0.15,0.06,0.23,0.09c0.11,0.06,0.22,0.11,0.34,0.15c27.5,9.86,55.57,18.09,84.04,24.63 c28.91,6.64,58.16,11.64,87.42,16.46c16.69,2.75,33.39,5.48,50.09,8.23c2.9,0.61,5.7,1.68,8.26,3.16c2.05,1.19,4.43,2.73,4.76,5.26 c0.72,5.42-1.49,11.12-2.21,16.45c-3.56,23.34-10.85,46.01-21.65,67.01c-1.63,2.59-2.91,5.4-4.65,7.93 c-1.9,2.77-4.21,4.13-7.59,4.19c-4.71,0.09-9.33-0.77-13.95-1.56c0.13-0.43,0.26-0.86,0.39-1.29l1.6-5.24 c5.89-19.3,11.77-38.59,17.66-57.89c1.83-5.56,2.13-11.53-1.73-16.33c-3.53-4.4-8.99-6.78-14.52-7.31 c-28.63-3.15-57.28-6.3-85.71-11.01c-27.9-4.62-55.47-10.93-82.46-19.39c-13.61-4.27-27.04-9.06-40.3-14.32 C183.9,21.53,184.9,17.94,186.79,14.56z M147.65,41.26c1.98-5.39,5.01-12.29,10.34-15.14c5.4-2.88,13.31-0.07,18.46,2.16 c0.1,0.04,0.21,0.08,0.31,0.11c0.11,0.06,0.22,0.11,0.34,0.16c0.21,0.08,0.42,0.17,0.62,0.25c1.52,0.62,3.04,1.23,4.57,1.83 c24.55,9.72,49.75,17.78,75.41,24.03c28.12,6.86,56.74,11.39,85.43,15.05c16.15,2.06,32.34,3.84,48.53,5.62 c3.88,0.37,7.93,2.25,10.39,5.34c2.71,3.41,1.9,7.65,0.65,11.47c-6.61,21.68-13.23,43.36-19.84,65.04 c-0.06,0.21-0.13,0.42-0.19,0.63c-0.16,0.53-0.33,1.07-0.49,1.6c-0.24,0.8-0.53,1.6-0.84,2.38c-0.1,0-0.2,0-0.3-0.01 c0.1,0.01,0.19,0.02,0.29,0.03c-4.2,10.43-14.59,19.01-26.26,16.24c0.2-0.45,0.41-0.91,0.61-1.36l2.68-6.37 c1.41-3.51,2.74-7.05,3.97-10.62c0.53-1.54,1.04-3.08,1.54-4.62c3.57-11.13,6.26-22.54,8.03-34.12c0.45-3.3,1.26-6.54,1.79-9.83 c0.52-3.2,1.11-6.74,0.27-9.94c-1.63-6.25-10.2-9.67-15.93-10.93c-0.1-0.02-0.19-0.04-0.29-0.06c-29.39-4.83-58.81-9.45-88.12-14.72 c-29.02-5.22-57.87-11.36-86.25-19.44c-2.24-0.64-4.48-1.29-6.71-1.95c-1.54-0.45-3.07-0.91-4.6-1.37 c-8.59-2.6-17.13-5.35-25.62-8.26C146.83,43.39,147.24,42.33,147.65,41.26z M117.96,53.81c1.51-2.69,3.01-5.49,5.35-7.56 c3.22-2.84,7.25-2.67,11.03-1c0.08,0.03,0.15,0.06,0.23,0.09c0.11,0.06,0.22,0.11,0.34,0.15c1.57,0.56,3.15,1.12,4.72,1.67 c1.69,0.59,3.38,1.18,5.08,1.76c8.64,2.96,17.34,5.77,26.08,8.41c1.53,0.46,3.07,0.92,4.61,1.37c14.4,4.25,28.92,8.06,43.55,11.42 c28.91,6.64,58.16,11.64,87.42,16.46c16.69,2.75,33.39,5.48,50.09,8.23c2.9,0.61,5.7,1.68,8.26,3.16c2.05,1.19,4.43,2.73,4.76,5.26 c0.72,5.42-1.49,11.12-2.21,16.45c-1.8,11.82-4.57,23.46-8.25,34.81c-0.5,1.54-1.02,3.08-1.56,4.61c-1.54,4.41-3.23,8.77-5.05,13.07 c-0.64,1.51-1.29,3-1.97,4.49c-0.08,0.18-0.16,0.37-0.25,0.55c-0.77,1.69-1.55,3.38-2.36,5.05c-0.72,1.49-1.46,2.97-2.21,4.44 c-1.58,2.51-2.83,5.21-4.48,7.67c-0.05,0.04-0.1,0.09-0.15,0.14c-0.23,0.23-0.42,0.52-0.56,0.85c-1.8,2.28-3.98,3.4-7.05,3.46 c-4.77,0.09-9.46-0.8-14.16-1.59c0.13-0.43,0.26-0.85,0.39-1.28l1.59-5.22c1.25-4.11,2.51-8.23,3.76-12.34 c0.53-1.73,1.05-3.45,1.58-5.18c1.79-5.86,3.58-11.73,5.37-17.59c0.47-1.54,0.94-3.09,1.41-4.63c1.61-5.26,3.21-10.53,4.82-15.79 c1.83-5.56,2.13-11.53-1.73-16.33c-3.53-4.4-8.99-6.78-14.52-7.31c-28.63-3.15-57.28-6.3-85.71-11.01 c-24.11-3.99-47.97-9.25-71.43-16.06c-1.52-0.44-3.04-0.89-4.56-1.35c-2.16-0.65-4.32-1.31-6.48-1.98 c-6.35-1.99-12.66-4.1-18.93-6.31c-1.69-0.6-3.38-1.2-5.06-1.81c-5.3-1.93-10.58-3.93-15.83-6 C114.66,62.43,115.63,57.96,117.96,53.81z M48.81,94.34c3.3-0.66,7.01-0.05,10.1,1.23c2.47,1.02,5.71,3,6.03,5.96 c0,0.03,0.01,0.05,0.01,0.07c-2.96,7.73-5.92,15.47-8.89,23.2c-3.33-5.86-7.8-11.37-13.51-14.74 C38.98,104.35,41.87,95.73,48.81,94.34z M26.02,161.28c0.83-2.02,1.33-4.17,1.33-6.49c-0.01-3.16-0.96-6.31-3.01-8.74 c-2.11-2.51-5.23-3.67-8.31-4.47c-2.94-0.77-6.02-1.33-8.1-3.73c-1.65-1.9-2.45-4.47-2.52-6.97c-0.18-6.22,4.19-11,9.47-13.68 c7.64-3.89,16.63-3.17,24.93-2.49c6.24,3.7,10.62,10.37,13.7,16.82c-0.34,0.88-0.68,1.77-1.01,2.65 c-5.84-4.92-13.66-7.85-20.97-9.22c-3.4-0.64-4.85,4.57-1.43,5.21c7.18,1.34,14.88,4.17,20.25,9.34c-0.29,0.85-0.55,1.71-0.78,2.57 c-6.17-2.43-12.84-4-19.44-2.96c-1.45,0.23-2.23,2.02-1.88,3.32c0.41,1.54,1.89,2.11,3.32,1.89c5.64-0.89,11.86,0.94,17.11,3.16 c-0.17,2.32-0.05,4.66,0.41,6.99c0.09,0.45,0.19,0.89,0.31,1.32C41.25,156.27,33.41,158.11,26.02,161.28z M87.09,219.33 c-0.58,0.13-1.16,0.24-1.75,0.32c-1.79,0.22-3.82,0.15-5.27-1.05c-0.27-0.22-0.51-0.48-0.71-0.75c5.65-5.02,11.31-10.04,16.96-15.06 c2.6-2.31-1.23-6.12-3.82-3.82c-4.93,4.38-9.85,8.75-14.78,13.13c-0.39-3.31-0.5-6.77-2.45-9.6c-1.2-1.75-2.84-2.88-4.67-3.44 c3.89-2.92,8.07-5.45,12.54-7.45c3.17-1.42,0.42-6.07-2.72-4.66c-10.07,4.5-18.85,11.69-26.1,19.93c-0.05,0.06-0.09,0.12-0.14,0.17 c-0.5,0.51-1,1.01-1.53,1.51c-2.96,2.78-6.83,4.34-10.09,1.1c-4.26-4.24-3.48-10.48-2.39-15.84c1.13-5.58,2.43-11.07,1.24-16.75 c-1.06-5.03-4.31-9.33-9.28-10.96c-0.76-0.25-1.53-0.42-2.31-0.54c6.9-2.74,14.19-4.23,21.78-4.44c1.89,3.22,4.58,5.92,7.73,8.04 c-5.58,1.52-10.73,4.26-15.19,8.15c-2.62,2.29,1.21,6.09,3.82,3.82c5.15-4.49,11.66-7.26,18.48-7.82c0.03,0,0.06-0.01,0.09-0.01 c0.81,0.45,1.62,0.89,2.44,1.32c-6.56,3.82-12.22,8.93-16.83,15c-0.89,1.17-0.17,3.01,0.97,3.69c1.38,0.82,2.82,0.19,3.69-0.97 c4.76-6.27,10.98-11.24,18-14.74c14.7,7.24,30.19,12.74,45.99,17.12c-4.6,2.76-8.76,6.16-12.88,9.7 C101.36,210.02,94.78,215.38,87.09,219.33z M159.9,221.71c-0.04,1.67,0.02,3.4,0.2,5.13c-1.35-0.57-2.83-0.91-4.45-0.97 c-3.92-0.13-7.79,1.37-11.01,3.57c0.97-3.74,1.94-7.49,3.66-10.92c1.55-3.1-3.1-5.83-4.66-2.72c-2.02,4.02-3.17,8.35-4.33,12.68 c-1.09,4.04-2.15,8.18-4.54,11.68c-0.13,0.2-0.24,0.39-0.31,0.59c-3.17,4.19-6.58,8.04-11.82,9.34c-3.96,0.98-8.12-0.2-9.42-4.42 c-1.29-4.22,0.01-8.83,0.48-13.08c0.46-4.19,0.26-9-2.14-12.63c-1.94-2.94-4.91-4.46-8.17-4.82c2.39-1.86,4.71-3.8,7.02-5.78 c5.55-4.77,11.19-9.74,18.02-12.6c1.68,0.43,3.37,0.84,5.05,1.25c-6.29,4.44-11.88,10.43-14.87,17.31 c-1.37,3.15,3.28,5.91,4.66,2.72c3.4-7.81,10.24-14.19,17.63-18.32c0.37,0.08,0.74,0.17,1.12,0.25c-4.29,3.01-7.95,7.05-9.95,11.78 c-0.57,1.35-0.39,2.88,0.97,3.69c1.13,0.67,3.12,0.37,3.69-0.97c2.38-5.63,7.51-10.46,13.15-12.83c4.65,0.97,9.31,1.89,13.98,2.78 C161.57,209.92,160.04,215.71,159.9,221.71z M108.71,185.49c-15.01-4.88-29.57-11.06-43.23-18.99c-0.09-0.05-0.19-0.11-0.28-0.16 c-5.5-2.78-9.71-7.1-10.93-13.29c-1-5.1,0.27-10.56,2.52-15.16c0.06-0.12,0.11-0.24,0.15-0.36c0.04-0.09,0.09-0.18,0.12-0.28 c6.94-18.13,13.88-36.26,20.82-54.38c1.98-5.39,5.01-12.29,10.34-15.14c5.4-2.88,13.31-0.07,18.46,2.16 c0.1,0.04,0.21,0.08,0.31,0.11c0.11,0.06,0.22,0.11,0.34,0.16c0.36,0.15,0.71,0.29,1.07,0.43c1.53,0.62,3.07,1.24,4.61,1.84 c4.91,1.94,9.84,3.81,14.8,5.61c1.68,0.61,3.37,1.22,5.06,1.81c8.35,2.95,16.77,5.71,25.25,8.27c1.49,0.45,2.99,0.9,4.49,1.34 c8.39,2.46,16.83,4.73,25.33,6.8c28.12,6.86,56.74,11.39,85.43,15.05c16.15,2.06,32.34,3.84,48.53,5.62 c3.88,0.37,7.93,2.25,10.39,5.34c2.71,3.41,1.9,7.65,0.65,11.47c-1.67,5.47-3.34,10.94-5,16.41c-0.47,1.54-0.94,3.09-1.41,4.63 c-1.78,5.83-3.56,11.67-5.34,17.5c-0.53,1.73-1.05,3.45-1.58,5.18c-1.93,6.32-3.85,12.63-5.78,18.95c-0.05,0.16-0.1,0.32-0.15,0.49 c-0.42,1.37-0.84,2.75-1.26,4.12c0,0.01-0.01,0.02-0.01,0.03c-0.07,0-0.13,0-0.2-0.01c0.07,0.01,0.13,0.01,0.2,0.02 c-3.52,11.51-14.68,21.69-27.3,18.55c-0.14-0.02-0.28-0.05-0.42-0.07c-21.7-3.68-43.4-7.37-65.11-11.05 c-0.05-0.01-0.1-0.02-0.15-0.03c-9.41-1.6-18.81-3.19-28.22-4.79c-1.12-0.19-2.25-0.38-3.37-0.57c-0.14-0.03-0.28-0.06-0.41-0.07 c-6.47-1.1-12.94-2.21-19.4-3.39c-0.11-0.03-0.23-0.05-0.34-0.06C147.77,195.96,127.97,191.75,108.71,185.49z M180.53,240.98 c0.54,1.05,1.26,1.94,2.09,2.69c-2.51,0.85-5.34,0.64-7.82-0.57c-4.13-2.01-5.61-6.01-7.79-9.74c-3.51-8.77-1.44-19.44,2.24-27.93 c5.71,1.05,11.43,2.06,17.15,3.03c2.15,1.82,2.14,5.96,1.87,8.44c-0.45,4.24-3.04,6.71-5.39,10.05 C179.99,231.05,178.03,236.17,180.53,240.98z M310.11,258.41c-0.89-8.81-4.93-17.51-11.05-23.43c-2.49-2.42-6.32,1.39-3.82,3.82 c7.88,7.64,12.32,21.61,8.17,32.19c-3.05,6.65-6.55,13.01-14.1,15.47c-5.46,1.78-11.24,0.94-15.87-1.89 c-3.74-3.44-6.35-7.51-7.45-12.53c-1.04-4.7-0.8-9.59-0.8-14.37c0-10.9,0.18-22.89-6.55-32.11c-2.03-2.78-6.71-0.09-4.66,2.72 c6.71,9.19,5.83,21.4,5.81,32.2c0,0.6,0,1.2,0,1.8c-0.11-0.13-0.22-0.27-0.34-0.4c-2.93-3.16-7.4-4.98-11.51-3.56 c1.24-7.88,1.01-15.89-0.29-23.74c-0.56-3.42-5.77-1.97-5.2,1.43c1.14,6.92,1.36,14.23,0.24,21.17c-1.04,6.43-3.21,12.95-8.09,17.45 c-4.87,1.16-7.53-5.31-7.9-9.01c-0.51-5.16,0.39-10.34-0.73-15.46c-0.13-0.58-0.28-1.15-0.46-1.71c-0.02-0.1-0.05-0.19-0.09-0.29 c-0.02-0.06-0.05-0.12-0.07-0.18c-0.13-0.38-0.28-0.76-0.44-1.12c-1.4-3.8-2.06-7.82-1.33-11.87c0.83-4.6,3.06-8.69,5.77-12.44 c2.04-2.82-2.64-5.51-4.66-2.72c-4.38,6.04-6.88,12.89-6.65,19.91c-0.07-0.03-0.14-0.07-0.21-0.1c-4.65-1.92-9.86-0.95-14.57,0.26 c-4.06,1.05-8.02,2.38-12.28,1.75c-3.51-0.52-6.9-2.58-6.13-6.64c0.87-4.6,5.22-7.49,7.15-11.53c1.7-3.55,2.08-7.71,1.53-11.57 c-0.11-0.78-0.27-1.56-0.5-2.32c6,1.01,12,1.99,18.01,2.98c-5.03,3.95-8.7,9.74-9.59,16.05c-0.21,1.45,0.36,2.88,1.89,3.32 c1.26,0.36,3.11-0.44,3.32-1.89c1-7,5.96-13.61,12.65-16.12c3.72,0.62,7.44,1.24,11.15,1.87c12.37,2.1,24.75,4.2,37.12,6.3 c2.91,6.54,4.75,14.56,3.61,21.65c-0.55,3.4,4.65,4.86,5.21,1.43c1.18-7.32-0.05-15.02-2.62-22.03c1.6,0.27,3.19,0.54,4.79,0.81 c2.84,4.59,4.29,9.74,4.2,15.18c-0.06,3.47,5.34,3.48,5.4,0c0.08-4.83-0.9-9.6-2.84-13.97c7.57,1.36,14.69-0.93,20.41-5.34 c-0.06,0.67,0.17,1.38,0.81,2c8.56,8.25,15.61,17.52,21.53,27.65C320.83,248.39,314.44,252.8,310.11,258.41z M393.71,206.14 c-2.96-5.86-8.01-10.6-14.02-13.92c-3.04-1.68-5.77,2.98-2.72,4.66c7.9,4.37,14.05,11.38,14.17,20.79c0,0.06,0.01,0.12,0.01,0.18 c-0.51,6.43-0.17,13-1.58,19.31c-1.02,4.58-3.03,9.07-7.14,11.64c-3.16,1.97-7.56,3.05-10.87,0.79c-1.12-0.76-2.03-1.74-2.87-2.8 c-0.06-0.1-0.12-0.21-0.19-0.31c-6.1-8.66-12.96-16.86-21.7-22.97c-2.85-1.99-5.55,2.68-2.72,4.66c4.19,2.93,7.92,6.44,11.32,10.26 c-0.77,0.22-1.52,0.57-2.24,1.06c-3.51,2.41-4.59,6.94-5.02,10.92c-0.33,3.12,0.08,8.26-2.85,10.34c-2.8,1.99-5.55-2.14-7.02-3.98 c-0.14-0.18-0.28-0.35-0.42-0.52c-7.06-14.26-16.01-27.18-27.49-38.24c-0.52-0.5-1.1-0.73-1.67-0.76c4.1-4.04,7.23-9.22,8.92-14.79 c0.06-0.21,0.13-0.42,0.19-0.63c6.02,1.04,12.13,2.45,18.15,1.57c2.89-0.42,5.06-1.77,6.84-3.59c7.13,5.88,13.59,12.49,19.3,19.76 c0.91,1.16,2.86,0.93,3.82,0c1.14-1.12,0.9-2.68,0-3.82c-5.87-7.48-12.53-14.24-19.89-20.24c0.4-0.65,0.78-1.31,1.16-1.97 c6.12,2.3,11.73,6.15,16.14,10.95c2.35,2.57,6.16-1.26,3.82-3.82c-4.72-5.15-10.73-9.23-17.23-11.84c0.02-0.05,0.04-0.09,0.06-0.14 c0.95-1.85,1.87-3.72,2.77-5.6c0.23,0.04,0.46,0.08,0.69,0.12c9.59,2.39,18.58-1.18,25.09-7.63c12.44,2.56,23.19,8.99,31.74,18.01 C402.92,193.83,396.57,199.43,393.71,206.14z M467.69,169.45c-1.11,1.13-2.43,1.98-3.96,2.39c-2.68,0.72-5.48-0.15-8.21-0.02 c-0.04,0-0.07,0.01-0.11,0.01c-5.55-0.38-11-1.27-16.35-2.88c-5.78-1.74-11.35-4.1-16.93-6.39c-1.36-0.56-2.95,0.6-3.32,1.89 c-0.44,1.54,0.54,2.77,1.89,3.32c5.76,2.36,11.51,4.81,17.49,6.56c2.73,0.8,5.49,1.41,8.28,1.88c-3.72,4.29-5.11,10.98-5.26,16.63 c-0.14,5.09,0.4,10.92-2.44,15.41c-1.98,3.13-6.4,6.24-9.93,3.56c-2.91-2.21-3.87-6.63-5.43-9.76c-0.53-1.06-1.14-2.08-1.84-3.01 c-0.04-0.07-0.08-0.13-0.12-0.2c-9.6-13.57-22.89-23.87-39-27.88c1.13-1.6,2.12-3.29,2.97-5.06c9.97,5.12,20.44,9.23,31.24,12.24 c3.35,0.93,4.78-4.27,1.43-5.21c-8.54-2.38-16.84-5.45-24.85-9.2c3.85,0.61,7.72,0.98,11.55,0.42c6.01-0.88,8.9-5.74,11.63-10.56 c9.4,2.64,19.39,4.1,29.12,2.84c1.46-0.19,2.68-1.11,2.7-2.7c0.01-1.31-1.25-2.89-2.7-2.7c-8.86,1.15-17.79,0-26.38-2.29 c0.58-1.15,1.15-2.3,1.71-3.45c6.77-0.38,13.42-2.11,19.97-3.76c2.98-0.75,5.95-1.53,8.96-2.11c0.99-0.19,1.94-0.36,2.93-0.42 c0.42-0.02,0.86-0.04,1.29,0c-0.34-0.01,0.72,0.35,0.25,0.08c7.48,4.09,16.94,10.62,17.17,20.13 C471.54,162.89,470.31,166.78,467.69,169.45z" style="fill: rgb(51, 53, 90);"/></g></svg>